<?xml version="1.0" encoding="UTF-8"?>
<svg xmlns="http://www.w3.org/2000/svg" viewBox="0 0 64 64" width="64" height="64" role="img" aria-label="Book Central">
  <defs>
    <linearGradient id="g" x1="0" y1="0" x2="1" y2="1">
      <stop offset="0" stop-color="#0b4f3e"/>
      <stop offset="1" stop-color="#7fbf7a"/>
    </linearGradient>
  </defs>

  <!-- Rounded square background -->
  <rect x="4" y="4" width="56" height="56" rx="14" fill="url(#g)"/>

  <!-- Book body -->
  <path d="M20 18c0-1.1.9-2 2-2h18c2.8 0 5 2.2 5 5v25c0 2.1 1.7 3.8 3.8 3.8H24c-2.2 0-4-1.8-4-4V18z" fill="#ffffff" opacity="0.95"/>

  <!-- Book spine -->
  <rect x="20" y="16" width="6" height="36" rx="2" fill="#0b2b24" opacity="0.35"/>

  <!-- Page lines -->
  <path d="M29 26h14M29 32h14M29 38h12" stroke="#0b2b24" stroke-width="3" stroke-linecap="round" opacity="0.35"/>

  <!-- Bookmark -->
  <path d="M41 16v16l-4-3-4 3V16" fill="#f0b429" opacity="0.95"/>
</svg>
